<!DOCTYPE svg PUBLIC "-//W3C//DTD SVG 20010904//EN" "http://www.w3.org/TR/2001/REC-SVG-20010904/DTD/svg10.dtd">
<svg version="1.0" xmlns="http://www.w3.org/2000/svg" width="869px" height="244px" viewBox="0 0 8690 2440" preserveAspectRatio="xMidYMid meet">
<g id="layer1" fill="#003333" stroke="none">
 <path d="M975 2428 c-60 -5 -132 -12 -160 -16 l-50 -7 -3 -107 -3 -108 -113 0 c-140 0 -236 -22 -361 -84 -112 -56 -191 -125 -236 -208 l-34 -63 1 -165 c0 -161 1 -167 33 -253 103 -274 364 -582 653 -771 112 -73 268 -147 383 -182 83 -26 104 -28 260 -28 l170 -1 67 33 c75 37 158 119 175 173 9 27 11 -10 12 -173 l1 -208 -312 -2 -313 -3 -3 -127 -3 -128 526 0 525 0 0 943 c0 1030 1 1007 -59 1125 -73 145 -213 258 -398 323 -129 45 -455 61 -758 37z m498 -303 c188 -40 264 -120 286 -305 7 -49 11 -277 10 -540 0 -399 -2 -449 -14 -405 -24 91 -141 165 -262 165 -51 0 -58 -3 -94 -39 -46 -45 -48 -65 -19 -166 21 -72 28 -144 16 -164 -4 -6 -31 -11 -59 -11 -171 0 -390 123 -607 340 -229 228 -360 467 -360 656 0 48 6 74 31 122 54 108 142 152 303 152 157 0 317 -49 534 -161 116 -60 140 -69 186 -69 144 0 148 124 8 230 -69 51 -238 143 -327 176 -50 19 -50 19 -20 25 59 13 319 9 388 -6z"/>
 <path d="M4443 1574 c-54 -19 -128 -85 -155 -138 -31 -59 -30 -175 1 -239 50 -103 154 -157 304 -157 110 0 150 10 213 53 71 48 104 116 104 216 0 130 -59 217 -178 261 -65 25 -224 27 -289 4z m258 -105 c107 -54 105 -255 -4 -310 -55 -28 -182 -24 -223 7 -61 45 -86 114 -70 198 8 43 49 94 91 112 48 21 159 18 206 -7z"/>
 <path d="M5670 1568 c-65 -33 -93 -80 -88 -144 9 -108 74 -150 267 -172 69 -9 127 -16 129 -18 9 -6 -30 -74 -49 -84 -35 -19 -165 -8 -217 19 -58 30 -72 23 -72 -34 0 -45 1 -47 48 -68 36 -16 72 -22 159 -25 100 -4 117 -2 158 18 29 14 57 38 73 63 l27 40 0 206 0 206 -60 0 c-54 0 -60 -2 -63 -22 l-3 -22 -41 27 c-36 24 -53 27 -132 30 -79 3 -97 0 -136 -20z m240 -96 c37 -20 70 -72 70 -111 0 -23 -1 -23 -77 -16 -93 8 -159 23 -171 39 -24 29 -23 56 2 81 21 21 34 25 83 25 37 0 71 -7 93 -18z"/>
 <path d="M6372 1570 c-65 -40 -72 -65 -72 -257 l0 -172 -52 -3 -53 -3 0 -40 0 -40 53 -3 52 -3 0 -59 c0 -68 12 -80 83 -83 l42 -2 3 72 3 72 77 3 77 3 0 40 0 40 -77 3 -78 3 0 152 c0 192 4 200 94 195 l61 -3 3 40 c5 54 -13 65 -107 65 -58 0 -84 -5 -109 -20z"/>
 <path d="M6823 1574 c-54 -19 -128 -85 -155 -138 -31 -59 -30 -175 1 -239 50 -103 154 -157 304 -157 110 0 150 10 213 53 71 48 104 116 104 216 0 130 -59 217 -178 261 -65 25 -224 27 -289 4z m258 -105 c107 -54 105 -255 -4 -310 -55 -28 -182 -24 -223 7 -61 45 -86 114 -70 198 8 43 49 94 91 112 48 21 159 18 206 -7z"/>
 <path d="M7885 1576 l-40 -12 0 -54 c0 -62 6 -65 80 -36 48 18 164 21 200 4 29 -13 33 -43 9 -69 -9 -10 -60 -32 -113 -50 -78 -26 -104 -40 -138 -74 -36 -36 -43 -49 -43 -82 0 -52 33 -101 90 -133 41 -23 55 -25 171 -25 147 0 159 5 159 71 0 23 -4 46 -10 49 -5 3 -30 -1 -55 -10 -54 -18 -153 -20 -189 -4 -53 24 -40 69 26 93 24 9 68 25 100 36 78 29 120 59 142 103 36 74 -11 157 -110 191 -57 19 -218 21 -279 2z"/>
 <path d="M2565 1568 c-3 -7 -4 -171 -3 -363 l3 -350 60 0 60 0 0 360 0 360 -58 3 c-40 2 -59 -1 -62 -10z"/>
 <path d="M2895 1568 c-3 -7 -4 -126 -3 -263 l3 -250 60 0 c54 0 60 2 63 22 3 21 4 21 60 -9 53 -28 63 -29 149 -26 85 3 94 5 130 34 75 61 78 74 78 299 l0 200 -60 0 -60 0 -5 -180 c-5 -187 -10 -210 -52 -239 -29 -21 -120 -21 -163 0 -63 30 -69 49 -75 244 l-5 175 -58 3 c-40 2 -59 -1 -62 -10z"/>
 <path d="M3605 1568 c-3 -7 -4 -126 -3 -263 l3 -250 60 0 c54 0 60 2 63 22 3 21 4 21 60 -9 53 -28 63 -29 149 -26 85 3 94 5 130 34 75 61 78 74 78 299 l0 200 -60 0 -60 0 -5 -180 c-5 -187 -10 -210 -52 -239 -29 -21 -120 -21 -163 0 -63 30 -69 49 -75 244 l-5 175 -58 3 c-40 2 -59 -1 -62 -10z"/>
 <path d="M5192 1568 c-11 -14 -232 -487 -235 -503 -1 -6 27 -10 67 -10 l70 0 68 155 c37 85 75 173 83 194 l16 40 88 -195 87 -194 58 -3 c33 -2 63 1 68 6 5 5 -46 120 -117 265 l-125 257 -59 0 c-35 0 -63 -5 -69 -12z"/>
 <path d="M7435 1568 c-3 -7 -4 -126 -3 -263 l3 -250 60 0 c55 0 60 2 63 22 l3 23 36 -28 c32 -24 45 -27 112 -27 l76 0 0 55 0 55 -61 -3 c-70 -4 -111 12 -140 55 -16 24 -20 53 -24 198 l-5 170 -58 3 c-40 2 -59 -1 -62 -10z"/>
 </g>

</svg>