<?xml version="1.0" encoding="utf-8"?>
<!-- Generator: Adobe Illustrator 15.0.0, SVG Export Plug-In . SVG Version: 6.00 Build 0)  -->
<!DOCTYPE svg PUBLIC "-//W3C//DTD SVG 1.1//EN" "http://www.w3.org/Graphics/SVG/1.1/DTD/svg11.dtd">
<svg version="1.1" id="Layer_1" xmlns="http://www.w3.org/2000/svg" xmlns:xlink="http://www.w3.org/1999/xlink" x="0px" y="0px"
	 width="869px" height="244px" viewBox="0 0 869 244" enable-background="new 0 0 869 244" xml:space="preserve">
<g id="layer1">
	<path fill="#ffffff" d="M33.149,80.045c-1.978-0.165-4.352-0.396-5.275-0.527l-1.648-0.23l-0.099-3.528l-0.099-3.561h-3.726
		c-4.615,0-7.78-0.725-11.901-2.769c-3.692-1.846-6.297-4.121-7.781-6.857L1.5,60.496l0.033-5.44c0-5.308,0.033-5.505,1.088-8.341
		c3.396-9.033,12-19.187,21.528-25.418c3.692-2.407,8.835-4.846,12.626-6c2.736-0.857,3.428-0.923,8.571-0.923l5.604-0.033
		l2.209,1.088c2.473,1.22,5.209,3.923,5.77,5.704c0.296,0.89,0.362-0.33,0.395-5.704l0.033-6.857L49.073,8.505L38.754,8.407
		L38.655,4.22L38.555,0h17.341h17.308v31.088c0,33.957,0.033,33.198-1.945,37.088c-2.407,4.78-7.022,8.506-13.121,10.648
		C53.885,80.309,43.138,80.836,33.149,80.045z M49.567,70.056c6.198-1.319,8.704-3.956,9.429-10.055
		c0.231-1.616,0.363-9.132,0.33-17.803c0-13.154-0.065-14.802-0.461-13.352c-0.791,3-4.648,5.439-8.637,5.439
		c-1.681,0-1.912-0.099-3.099-1.286c-1.517-1.483-1.583-2.143-0.626-5.473c0.692-2.374,0.923-4.747,0.527-5.407
		c-0.131-0.198-1.021-0.362-1.945-0.362c-5.638,0-12.857,4.055-20.011,11.209c-7.55,7.516-11.868,15.396-11.868,21.626
		c0,1.583,0.198,2.439,1.021,4.022c1.781,3.561,4.682,5.011,9.989,5.011c5.176,0,10.451-1.616,17.605-5.308
		c3.824-1.978,4.615-2.275,6.132-2.275c4.748,0,4.879,4.088,0.264,7.583c-2.275,1.681-7.846,4.714-10.78,5.802
		c-1.648,0.626-1.648,0.626-0.659,0.824C38.72,70.683,47.292,70.551,49.567,70.056z"/>
	<path fill="#ffffff" d="M147.48,51.891c-1.78-0.626-4.22-2.802-5.11-4.55c-1.022-1.945-0.989-5.77,0.033-7.879
		c1.648-3.396,5.077-5.176,10.022-5.176c3.626,0,4.945,0.33,7.022,1.748c2.341,1.583,3.429,3.824,3.429,7.121
		c0,4.286-1.945,7.154-5.868,8.604C154.865,52.583,149.623,52.649,147.48,51.891z M155.986,48.43
		c3.527-1.781,3.461-8.407-0.132-10.22c-1.813-0.923-6-0.792-7.352,0.231c-2.011,1.483-2.835,3.758-2.308,6.527
		c0.264,1.417,1.616,3.099,3,3.692C150.777,49.353,154.436,49.253,155.986,48.43z"/>
	<path fill="#ffffff" d="M187.932,51.693c-2.143-1.088-3.066-2.637-2.902-4.747c0.297-3.561,2.44-4.945,8.803-5.67
		c2.275-0.297,4.187-0.528,4.253-0.593c0.296-0.198-0.989-2.44-1.616-2.77c-1.154-0.626-5.439-0.264-7.154,0.626
		c-1.912,0.989-2.374,0.758-2.374-1.121c0-1.483,0.033-1.549,1.583-2.242c1.187-0.527,2.374-0.725,5.242-0.824
		c3.296-0.132,3.857-0.066,5.209,0.594c0.956,0.461,1.879,1.252,2.406,2.077l0.891,1.319v6.792v6.791h-1.978
		c-1.781,0-1.978-0.066-2.078-0.725l-0.099-0.726l-1.352,0.89c-1.187,0.792-1.747,0.89-4.352,0.989
		C189.81,52.451,189.217,52.353,187.932,51.693z M195.844,48.528c1.219-0.659,2.308-2.374,2.308-3.66
		c0-0.758-0.033-0.758-2.539-0.527c-3.066,0.264-5.242,0.758-5.638,1.286c-0.791,0.956-0.758,1.846,0.066,2.67
		c0.692,0.692,1.121,0.824,2.736,0.824C193.997,49.122,195.118,48.891,195.844,48.528z"/>
	<path fill="#ffffff" d="M211.074,51.759c-2.143-1.318-2.373-2.143-2.373-8.473v-5.67l-1.715-0.099l-1.747-0.099V36.1v-1.319
		l1.747-0.099l1.715-0.099v-1.945c0-2.242,0.395-2.637,2.736-2.736l1.385-0.066l0.099,2.374l0.099,2.374l2.539,0.099l2.539,0.099
		V36.1v1.318l-2.539,0.099l-2.571,0.099v5.011c0,6.33,0.131,6.594,3.099,6.429l2.011-0.099l0.099,1.318
		c0.165,1.78-0.428,2.143-3.527,2.143C212.756,52.418,211.899,52.253,211.074,51.759z"/>
	<path fill="#ffffff" d="M225.943,51.891c-1.78-0.626-4.22-2.802-5.11-4.55c-1.022-1.945-0.989-5.77,0.033-7.879
		c1.648-3.396,5.077-5.176,10.022-5.176c3.626,0,4.945,0.33,7.022,1.748c2.34,1.583,3.429,3.824,3.429,7.121
		c0,4.286-1.945,7.154-5.869,8.604C233.328,52.583,228.086,52.649,225.943,51.891z M234.448,48.43
		c3.528-1.781,3.462-8.407-0.132-10.22c-1.813-0.923-6-0.792-7.352,0.231c-2.011,1.483-2.835,3.758-2.308,6.527
		c0.264,1.417,1.615,3.099,3,3.692C229.24,49.353,232.899,49.253,234.448,48.43z"/>
	<path fill="#ffffff" d="M260.955,51.957l-1.319-0.395v-1.78c0-2.044,0.198-2.143,2.637-1.187c1.583,0.593,5.407,0.692,6.594,0.132
		c0.956-0.429,1.088-1.417,0.296-2.275c-0.296-0.33-1.978-1.055-3.725-1.648c-2.571-0.857-3.429-1.319-4.549-2.44
		c-1.187-1.187-1.418-1.616-1.418-2.704c0-1.714,1.088-3.33,2.967-4.384c1.352-0.758,1.813-0.824,5.637-0.824
		c4.847,0,5.242,0.165,5.242,2.341c0,0.758-0.132,1.517-0.33,1.615c-0.165,0.099-0.989-0.033-1.813-0.33
		c-1.78-0.593-5.044-0.66-6.231-0.132c-1.747,0.791-1.319,2.274,0.857,3.066c0.792,0.296,2.242,0.824,3.297,1.187
		c2.572,0.957,3.956,1.945,4.682,3.396c1.187,2.439-0.363,5.176-3.626,6.297C268.273,52.517,262.966,52.583,260.955,51.957z"/>
	<path fill="#ffffff" d="M85.568,51.693c-0.099-0.23-0.132-5.637-0.099-11.967l0.099-11.539h1.978h1.978v11.868v11.868l-1.912,0.099
		C86.293,52.089,85.666,51.99,85.568,51.693z"/>
	<path fill="#ffffff" d="M96.447,51.693c-0.099-0.23-0.132-4.154-0.099-8.67l0.099-8.242h1.978c1.78,0,1.979,0.066,2.077,0.725
		c0.099,0.692,0.132,0.692,1.978-0.296c1.747-0.923,2.077-0.956,4.912-0.857c2.802,0.099,3.099,0.165,4.286,1.121
		c2.473,2.011,2.572,2.439,2.572,9.857v6.593h-1.978h-1.978l-0.165-5.934c-0.165-6.165-0.33-6.923-1.714-7.879
		c-0.956-0.692-3.956-0.692-5.374,0c-2.077,0.989-2.275,1.616-2.473,8.044l-0.165,5.769l-1.912,0.099
		C97.172,52.089,96.546,51.99,96.447,51.693z"/>
	<path fill="#ffffff" d="M119.854,51.693c-0.099-0.23-0.132-4.154-0.099-8.67l0.099-8.242h1.978c1.78,0,1.978,0.066,2.077,0.725
		c0.099,0.692,0.132,0.692,1.978-0.296c1.748-0.923,2.077-0.956,4.912-0.857c2.802,0.099,3.099,0.165,4.286,1.121
		c2.473,2.011,2.572,2.439,2.572,9.857v6.593h-1.978H133.7l-0.165-5.934c-0.165-6.165-0.33-6.923-1.714-7.879
		c-0.957-0.692-3.957-0.692-5.374,0c-2.077,0.989-2.275,1.616-2.472,8.044l-0.165,5.769l-1.913,0.099
		C120.579,52.089,119.952,51.99,119.854,51.693z"/>
	<path fill="#ffffff" d="M172.173,51.693c-0.363-0.461-7.648-16.055-7.748-16.583c-0.033-0.198,0.89-0.33,2.209-0.33h2.308
		l2.242,5.11c1.22,2.802,2.473,5.704,2.737,6.396l0.527,1.319l2.901-6.429l2.868-6.396l1.912-0.099
		c1.088-0.066,2.077,0.033,2.242,0.197c0.165,0.165-1.516,3.957-3.857,8.737l-4.121,8.473h-1.945
		C173.294,52.089,172.371,51.924,172.173,51.693z"/>
	<path fill="#ffffff" d="M246.119,51.693c-0.099-0.23-0.132-4.154-0.099-8.67l0.099-8.242h1.978c1.813,0,1.978,0.066,2.077,0.725
		l0.099,0.758l1.187-0.923c1.055-0.792,1.483-0.89,3.692-0.89h2.506v1.813v1.813l-2.011-0.099c-2.308-0.132-3.659,0.396-4.615,1.813
		c-0.527,0.791-0.66,1.747-0.791,6.527l-0.165,5.604l-1.913,0.099C246.844,52.089,246.218,51.99,246.119,51.693z"/>
</g>
</svg>
